<svg width="144" height="16" viewBox="0 0 144 16" fill="none" xmlns="http://www.w3.org/2000/svg">
<path d="M12.8516 5.85938H12.4648C12.1445 4.44531 11.5664 3.34766 10.7305 2.56641C9.89453 1.78516 8.87891 1.39453 7.68359 1.39453C6.37891 1.39453 5.33984 1.94531 4.56641 3.04688C3.80078 4.14844 3.41797 5.62891 3.41797 7.48828C3.41797 9.55859 3.86719 11.1602 4.76562 12.293C5.66406 13.4258 6.90234 13.9922 8.48047 13.9922C9.33203 13.9922 10.1133 13.8164 10.8242 13.4648C11.5352 13.1133 12.2578 12.5469 12.9922 11.7656V12.5039C11.6016 14.4102 9.70703 15.3633 7.30859 15.3633C5.16016 15.3633 3.41406 14.6992 2.07031 13.3711C0.726562 12.0352 0.0546875 10.3047 0.0546875 8.17969C0.0546875 6.02344 0.777344 4.22266 2.22266 2.77734C3.67578 1.32422 5.48047 0.597656 7.63672 0.597656C8.51953 0.597656 9.51562 0.792969 10.625 1.18359C11.1016 1.35547 11.4258 1.44141 11.5977 1.44141C11.9414 1.44141 12.2305 1.19922 12.4648 0.714844H12.8516V5.85938ZM30.043 7.99219C30.043 10.1406 29.3242 11.9062 27.8867 13.2891C26.4492 14.6719 24.6133 15.3633 22.3789 15.3633C20.1523 15.3633 18.3242 14.6719 16.8945 13.2891C15.4648 11.9062 14.75 10.1406 14.75 7.99219C14.75 5.84375 15.4648 4.07422 16.8945 2.68359C18.332 1.29297 20.1602 0.597656 22.3789 0.597656C24.6133 0.597656 26.4492 1.29297 27.8867 2.68359C29.3242 4.07422 30.043 5.84375 30.043 7.99219ZM26.6797 8.08594C26.6797 5.90625 26.3125 4.24609 25.5781 3.10547C24.8516 1.96484 23.7852 1.39453 22.3789 1.39453C20.9883 1.39453 19.9297 1.96484 19.2031 3.10547C18.4766 4.24609 18.1133 5.91406 18.1133 8.10938C18.1133 10.1484 18.4805 11.7344 19.2148 12.8672C19.9492 14 21.0039 14.5664 22.3789 14.5664C23.7305 14.5664 24.7852 14.0039 25.543 12.8789C26.3008 11.7539 26.6797 10.1562 26.6797 8.08594ZM41.2344 5.70703H41.6445V10.0547H41.2344C41.125 9.42969 40.9023 8.98438 40.5664 8.71875C40.2305 8.44531 39.7266 8.30859 39.0547 8.30859H36.875V12.6445C36.875 13.2695 37 13.7227 37.25 14.0039C37.5 14.2852 37.9492 14.4805 38.5977 14.5898V15H32V14.5898C32.6953 14.4805 33.1641 14.2773 33.4062 13.9805C33.6484 13.6758 33.7695 13.1211 33.7695 12.3164V3.26953C33.7695 2.69922 33.6523 2.28906 33.418 2.03906C33.1914 1.78906 32.7188 1.56641 32 1.37109V0.960938H41.9609L42.2422 3.59766H41.8438C41.5938 2.94141 41.2734 2.47266 40.8828 2.19141C40.4922 1.90234 39.9648 1.75781 39.3008 1.75781H36.875V7.51172H39.0547C39.6875 7.51172 40.1602 7.38281 40.4727 7.125C40.793 6.86719 41.0469 6.39453 41.2344 5.70703ZM52.7422 5.70703H53.1523V10.0547H52.7422C52.6328 9.42969 52.4102 8.98438 52.0742 8.71875C51.7383 8.44531 51.2344 8.30859 50.5625 8.30859H48.3828V12.6445C48.3828 13.2695 48.5078 13.7227 48.7578 14.0039C49.0078 14.2852 49.457 14.4805 50.1055 14.5898V15H43.5078V14.5898C44.2031 14.4805 44.6719 14.2773 44.9141 13.9805C45.1562 13.6758 45.2773 13.1211 45.2773 12.3164V3.26953C45.2773 2.69922 45.1602 2.28906 44.9258 2.03906C44.6992 1.78906 44.2266 1.56641 43.5078 1.37109V0.960938H53.4688L53.75 3.59766H53.3516C53.1016 2.94141 52.7812 2.47266 52.3906 2.19141C52 1.90234 51.4727 1.75781 50.8086 1.75781H48.3828V7.51172H50.5625C51.1953 7.51172 51.668 7.38281 51.9805 7.125C52.3008 6.86719 52.5547 6.39453 52.7422 5.70703ZM64.1094 5.8125H64.5664V10.1484H64.1094C63.9453 8.95312 63.2969 8.35547 62.1641 8.35547H59.6914V12.4805C59.6914 13.1133 59.8359 13.5586 60.125 13.8164C60.4141 14.0742 60.9102 14.2031 61.6133 14.2031H62.4336C63.8086 14.2031 64.793 13.332 65.3867 11.5898H65.7852L65.5273 15H54.8281V14.5898C55.5391 14.4414 56.0117 14.2305 56.2461 13.957C56.4805 13.6758 56.5977 13.1367 56.5977 12.3398V3.31641C56.5977 2.66016 56.4766 2.20703 56.2344 1.95703C55.9922 1.69922 55.5234 1.50391 54.8281 1.37109V0.960938H65.3633V4.07812H64.9531C64.7188 3.16406 64.4258 2.55078 64.0742 2.23828C63.7305 1.91797 63.1758 1.75781 62.4102 1.75781H59.6914V7.55859H62.1641C62.7266 7.55859 63.1562 7.42578 63.4531 7.16016C63.75 6.89453 63.9688 6.44531 64.1094 5.8125ZM76.3438 5.8125H76.8008V10.1484H76.3438C76.1797 8.95312 75.5312 8.35547 74.3984 8.35547H71.9258V12.4805C71.9258 13.1133 72.0703 13.5586 72.3594 13.8164C72.6484 14.0742 73.1445 14.2031 73.8477 14.2031H74.668C76.043 14.2031 77.0273 13.332 77.6211 11.5898H78.0195L77.7617 15H67.0625V14.5898C67.7734 14.4414 68.2461 14.2305 68.4805 13.957C68.7148 13.6758 68.832 13.1367 68.832 12.3398V3.31641C68.832 2.66016 68.7109 2.20703 68.4688 1.95703C68.2266 1.69922 67.7578 1.50391 67.0625 1.37109V0.960938H77.5977V4.07812H77.1875C76.9531 3.16406 76.6602 2.55078 76.3086 2.23828C75.9648 1.91797 75.4102 1.75781 74.6445 1.75781H71.9258V7.55859H74.3984C74.9609 7.55859 75.3906 7.42578 75.6875 7.16016C75.9844 6.89453 76.2031 6.44531 76.3438 5.8125ZM93.1016 0.597656V4.30078H92.7031C92.4297 3.48047 91.957 2.79297 91.2852 2.23828C90.6211 1.67578 89.9336 1.39453 89.2227 1.39453C88.582 1.39453 88.0352 1.57813 87.582 1.94531C87.1367 2.3125 86.9141 2.76172 86.9141 3.29297C86.9141 3.55078 86.9727 3.80859 87.0898 4.06641C87.207 4.31641 87.375 4.55078 87.5938 4.76953C87.8203 4.98828 88.5391 5.47656 89.75 6.23438C90.9844 6.99219 91.7812 7.51953 92.1406 7.81641C92.5 8.11328 92.8438 8.49219 93.1719 8.95312C93.6719 9.66406 93.9219 10.4414 93.9219 11.2852C93.9219 12.5352 93.4805 13.5273 92.5977 14.2617C91.7227 14.9961 90.6602 15.3633 89.4102 15.3633C88.7383 15.3633 87.9375 15.2422 87.0078 15C86.5156 14.875 86.1719 14.8125 85.9766 14.8125C85.6484 14.8125 85.4102 14.9648 85.2617 15.2695H84.8516V11.0391H85.2617C85.4727 12.1328 85.9102 12.9961 86.5742 13.6289C87.2383 14.2539 88.0547 14.5664 89.0234 14.5664C89.7734 14.5664 90.3906 14.3789 90.875 14.0039C91.3672 13.6289 91.6133 13.1523 91.6133 12.5742C91.6133 12.1055 91.457 11.6641 91.1445 11.25C90.832 10.8281 89.9961 10.2109 88.6367 9.39844C87.3867 8.64844 86.5586 8.07031 86.1523 7.66406C85.7461 7.25781 85.4375 6.80469 85.2266 6.30469C85.0234 5.79688 84.9219 5.26172 84.9219 4.69922C84.9219 3.49609 85.332 2.51172 86.1523 1.74609C86.9805 0.980469 88.043 0.597656 89.3398 0.597656C89.7383 0.597656 90.2188 0.664063 90.7812 0.796875C91.3438 0.921875 91.7422 0.984375 91.9766 0.984375C92.2031 0.984375 92.4453 0.855469 92.7031 0.597656H93.1016ZM107.551 12.3164V8.17969H100.812V12.6211C100.812 13.2617 100.922 13.707 101.141 13.957C101.359 14.1992 101.824 14.4102 102.535 14.5898V15H95.9375V14.5898C96.4375 14.4648 96.8086 14.3281 97.0508 14.1797C97.3008 14.0312 97.4727 13.8438 97.5664 13.6172C97.668 13.3828 97.7188 12.9492 97.7188 12.3164V3.33984C97.7188 2.70703 97.6016 2.26562 97.3672 2.01562C97.1406 1.75781 96.6641 1.54297 95.9375 1.37109V0.960938H102.535V1.37109C101.855 1.52734 101.398 1.73828 101.164 2.00391C100.93 2.26172 100.812 2.67188 100.812 3.23438V7.17188H107.551V3.33984C107.551 2.70703 107.438 2.26562 107.211 2.01562C106.984 1.75781 106.516 1.54297 105.805 1.37109V0.960938H112.426V1.37109C111.676 1.56641 111.191 1.78906 110.973 2.03906C110.754 2.28125 110.645 2.81641 110.645 3.64453V12.6211C110.645 13.2461 110.758 13.6875 110.984 13.9453C111.211 14.1953 111.691 14.4102 112.426 14.5898V15H105.805V14.5898C106.484 14.4336 106.945 14.2227 107.188 13.957C107.43 13.6836 107.551 13.1367 107.551 12.3164ZM129.723 7.99219C129.723 10.1406 129.004 11.9062 127.566 13.2891C126.129 14.6719 124.293 15.3633 122.059 15.3633C119.832 15.3633 118.004 14.6719 116.574 13.2891C115.145 11.9062 114.43 10.1406 114.43 7.99219C114.43 5.84375 115.145 4.07422 116.574 2.68359C118.012 1.29297 119.84 0.597656 122.059 0.597656C124.293 0.597656 126.129 1.29297 127.566 2.68359C129.004 4.07422 129.723 5.84375 129.723 7.99219ZM126.359 8.08594C126.359 5.90625 125.992 4.24609 125.258 3.10547C124.531 1.96484 123.465 1.39453 122.059 1.39453C120.668 1.39453 119.609 1.96484 118.883 3.10547C118.156 4.24609 117.793 5.91406 117.793 8.10938C117.793 10.1484 118.16 11.7344 118.895 12.8672C119.629 14 120.684 14.5664 122.059 14.5664C123.41 14.5664 124.465 14.0039 125.223 12.8789C125.98 11.7539 126.359 10.1562 126.359 8.08594ZM131.434 0.960938H138.641C140.125 0.960938 141.293 1.30469 142.145 1.99219C143.004 2.67969 143.434 3.57422 143.434 4.67578C143.434 5.86328 142.957 6.83594 142.004 7.59375C141.059 8.35156 139.754 8.73047 138.09 8.73047C137.512 8.73047 136.918 8.69141 136.309 8.61328V12.6211C136.309 13.2539 136.434 13.7109 136.684 13.9922C136.941 14.2734 137.402 14.4727 138.066 14.5898V15H131.434V14.5898C132.145 14.4492 132.617 14.2383 132.852 13.957C133.094 13.668 133.215 13.168 133.215 12.457V3.29297C133.215 2.65234 133.102 2.21094 132.875 1.96875C132.648 1.72656 132.168 1.52734 131.434 1.37109V0.960938ZM137.492 1.75781H136.309V7.78125C136.668 7.89062 137.012 7.94531 137.34 7.94531C138.199 7.94531 138.871 7.67188 139.355 7.125C139.84 6.57031 140.082 5.79688 140.082 4.80469C140.082 3.89844 139.844 3.16406 139.367 2.60156C138.891 2.03906 138.266 1.75781 137.492 1.75781Z" fill="white"/>
</svg>
